<?xml version="1.0" standalone="no"?>
<!DOCTYPE svg PUBLIC "-//W3C//DTD SVG 20010904//EN" "http://www.w3.org/TR/2001/REC-SVG-20010904/DTD/svg10.dtd">
<!-- Created using Krita: http://krita.org -->
<svg xmlns="http://www.w3.org/2000/svg" 
    xmlns:xlink="http://www.w3.org/1999/xlink"
    xmlns:krita="http://krita.org/namespaces/svg/krita"
    xmlns:sodipodi="http://sodipodi.sourceforge.net/DTD/sodipodi-0.dtd"
    width="240pt"
    height="240pt"
    viewBox="0 0 240 240">
<defs/>
<rect id="shape0" transform="translate(257.52, 82.08)" fill="none" stroke="#000000" stroke-width="9.6" stroke-linecap="square" stroke-linejoin="bevel" width="144" height="72" rx="7.2" ry="7.2"/><path id="shape1" transform="translate(48, 96)" fill="none" stroke="#000000" stroke-width="9.6" stroke-linecap="round" stroke-linejoin="round" d="M88.2 48C82.8 48 77.4 48 72 48C50.4 48 28.8 48 7.2 48C3.22355 48 4.0122e-16 44.7765 8.88178e-16 40.8L0 7.2C4.86959e-16 3.22355 3.22355 6.44699e-16 7.2 8.88178e-16C12.6 8.51171e-16 18 8.14164e-16 23.4 7.77156e-16M55.8 5.55112e-16C61.2 5.18104e-16 66.6 4.81097e-16 72 4.44089e-16C93.6 2.96059e-16 115.2 1.4803e-16 136.8 0C140.776 2.43479e-16 144 3.22355 144 7.2L144 40.8C144 44.7765 140.776 48 136.8 48C131.4 48 126 48 120.6 48"/><path id="shape2" transform="matrix(0.707106781186548 -0.707106781186548 0.707106781186548 0.707106781186548 61.8176623509137 96)" fill="#000000" fill-rule="evenodd" stroke="#000000" stroke-width="4.8" stroke-linecap="square" stroke-linejoin="bevel" d="M12 0C13.3255 8.11598e-17 14.4 1.07452 14.4 2.4L14.4 12C14.4 13.3255 13.3255 14.4 12 14.4L2.4 14.4C1.07452 14.4 2.8177e-16 13.3255 4.44089e-16 12Z"/><path id="shape0" transform="matrix(0.707106790312333 -0.7071067634358 0.707106790312333 0.7071067634358 157.817662219502 144)" fill="#000000" fill-rule="evenodd" stroke="#000000" stroke-width="4.8" stroke-linecap="square" stroke-linejoin="bevel" d="M2.4 4.44089e-16L12 0C13.3255 8.11598e-17 14.4 1.07452 14.4 2.4L2.4 14.4C1.07452 14.4 2.8177e-16 13.3255 4.44089e-16 12L0 2.4C1.6232e-16 1.07452 1.07452 3.62929e-16 2.4 4.44089e-16Z"/><text id="shape3" transform="translate(93.75, 134)" fill="#000000" font-family="Tahoma" font-size="26" font-size-adjust="0.210526" font-weight="600"><tspan x="0">ALL</tspan></text>
</svg>
