<?xml version="1.0" standalone="no"?>
<!DOCTYPE svg PUBLIC "-//W3C//DTD SVG 20010904//EN" "http://www.w3.org/TR/2001/REC-SVG-20010904/DTD/svg10.dtd">
<!-- Created using Krita: http://krita.org -->
<svg xmlns="http://www.w3.org/2000/svg" 
    xmlns:xlink="http://www.w3.org/1999/xlink"
    xmlns:krita="http://krita.org/namespaces/svg/krita"
    xmlns:sodipodi="http://sodipodi.sourceforge.net/DTD/sodipodi-0.dtd"
    width="240pt"
    height="240pt"
    viewBox="0 0 240 240">
<defs/>
<path id="shape0" transform="matrix(0.999236730442772 0 0 0.999952421246251 69.84 19.92)" fill="#000000" fill-rule="evenodd" stroke="#000000" stroke-width="4.8" stroke-linecap="square" stroke-linejoin="bevel" d="M0.312545 96.4848C23.6645 96.5408 43.6805 96.5888 60.3605 96.6288C68.7005 96.6488 76.2065 96.6668 82.8785 96.6828C86.2145 96.6908 89.342 96.6983 92.261 96.7053C93.7205 96.7088 95.1279 96.7121 96.4832 96.7154C97.1608 96.717 97.8254 96.7186 98.477 96.7202C98.8027 96.721 99.1253 96.7217 99.4445 96.7225C100.038 96.8199 100.354 96.8207 100.393 96.7248C100.451 96.5809 99.8701 96.221 99.6088 95.9691C99.3475 95.7173 99.0863 95.4654 98.825 95.2135C98.3025 94.7098 97.78 94.206 97.2575 93.7023C96.2125 92.6948 95.1675 91.6873 94.1225 90.6798C92.0325 88.6648 89.9425 86.6498 87.8525 84.6348C83.6725 80.6048 79.4925 76.5748 75.3125 72.5448C66.9525 64.4848 58.5925 56.4248 50.2325 48.3648C41.8725 40.3048 33.5125 32.2448 25.1525 24.1848C20.9725 20.1548 16.7925 16.1248 12.6125 12.0948C10.5225 10.0798 8.43254 8.06476 6.34254 6.04976C5.29754 5.04226 4.25254 4.03476 3.20754 3.02726C2.68504 2.52351 2.16254 2.01976 1.64004 1.51601C1.37879 1.26414 1.11754 1.01226 0.856286 0.760386C0.595036 0.508511 0.218736 -0.0575829 0.0725361 0.00476052C-0.0249307 0.0463228 -0.0241728 0.350963 0.0748096 0.918682C0.0755753 1.22646 0.0763487 1.53739 0.07713 1.85145C0.0786926 2.47957 0.0802864 3.12026 0.0819114 3.77351C0.0851616 5.08001 0.0885367 6.43676 0.0920368 7.84376C0.0990371 10.6578 0.106537 13.6728 0.114538 16.8888C0.130538 23.3208 0.148539 30.5568 0.16854 38.5968C0.208541 54.6768 0.256543 73.9728 0.312545 96.4848"/><path id="shape1" transform="matrix(0.999236730442772 0 0 -0.999952421246251 69.84 220.08)" fill="#000000" fill-rule="evenodd" stroke="#000000" stroke-width="4.8" stroke-linecap="square" stroke-linejoin="bevel" d="M0.312545 96.4848C23.6645 96.5408 43.6805 96.5888 60.3605 96.6288C68.7005 96.6488 76.2065 96.6668 82.8785 96.6828C86.2145 96.6908 89.342 96.6983 92.261 96.7053C93.7205 96.7088 95.1279 96.7121 96.4832 96.7154C97.1608 96.717 97.8254 96.7186 98.477 96.7202C98.8027 96.721 99.1253 96.7217 99.4445 96.7225C100.038 96.8199 100.354 96.8207 100.393 96.7248C100.451 96.5809 99.8701 96.221 99.6088 95.9691C99.3475 95.7173 99.0863 95.4654 98.825 95.2135C98.3025 94.7098 97.78 94.206 97.2575 93.7023C96.2125 92.6948 95.1675 91.6873 94.1225 90.6798C92.0325 88.6648 89.9425 86.6498 87.8525 84.6348C83.6725 80.6048 79.4925 76.5748 75.3125 72.5448C66.9525 64.4848 58.5925 56.4248 50.2325 48.3648C41.8725 40.3048 33.5125 32.2448 25.1525 24.1848C20.9725 20.1548 16.7925 16.1248 12.6125 12.0948C10.5225 10.0798 8.43254 8.06476 6.34254 6.04976C5.29754 5.04226 4.25254 4.03476 3.20754 3.02726C2.68504 2.52351 2.16254 2.01976 1.64004 1.51601C1.37879 1.26414 1.11754 1.01226 0.856286 0.760386C0.595036 0.508511 0.218736 -0.0575829 0.0725361 0.00476052C-0.0249307 0.0463228 -0.0241728 0.350963 0.0748096 0.918682C0.0755753 1.22646 0.0763487 1.53739 0.07713 1.85145C0.0786926 2.47957 0.0802864 3.12026 0.0819114 3.77351C0.0851616 5.08001 0.0885367 6.43676 0.0920368 7.84376C0.0990371 10.6578 0.106537 13.6728 0.114538 16.8888C0.130538 23.3208 0.148539 30.5568 0.16854 38.5968C0.208541 54.6768 0.256543 73.9728 0.312545 96.4848"/>
</svg>
