<?xml version="1.0" standalone="no"?>
<!DOCTYPE svg PUBLIC "-//W3C//DTD SVG 20010904//EN" "http://www.w3.org/TR/2001/REC-SVG-20010904/DTD/svg10.dtd">
<!-- Created using Krita: http://krita.org -->
<svg xmlns="http://www.w3.org/2000/svg" 
    xmlns:xlink="http://www.w3.org/1999/xlink"
    xmlns:krita="http://krita.org/namespaces/svg/krita"
    xmlns:sodipodi="http://sodipodi.sourceforge.net/DTD/sodipodi-0.dtd"
    width="240pt"
    height="240pt"
    viewBox="0 0 240 240">
<defs/>
<path id="shape0" transform="translate(71.4, 96)" fill="none" stroke="#000000" stroke-width="9.6" stroke-linecap="round" stroke-linejoin="bevel" d="M97.2 48C91.8 48 86.4 48 81 48C70.2 48 59.4 48 48.6 48C37.8 48 27 48 16.2 48C10.8 48 5.4 48 0 48M0 6.66134e-16C5.4 6.29126e-16 10.8 5.92119e-16 16.2 5.55112e-16C27 4.81097e-16 37.8 4.07082e-16 48.6 3.33067e-16C59.4 2.59052e-16 70.2 1.85037e-16 81 1.11022e-16C86.4 7.40149e-17 91.8 3.70074e-17 97.2 0"/><path id="shape0" transform="matrix(0.707106770542003 -0.707106783576852 0.707106770542003 0.707106783576852 157.817662504195 96)" fill="#000000" fill-rule="evenodd" stroke="#000000" stroke-width="4.8" stroke-linecap="square" stroke-linejoin="bevel" d="M12 0C13.3255 8.11598e-17 14.4 1.07452 14.4 2.4L14.4 12C14.4 13.3255 13.3255 14.4 12 14.4L2.4 14.4C1.07452 14.4 2.8177e-16 13.3255 4.44089e-16 12Z"/><path id="shape01" transform="matrix(0.707106759897476 -0.707106785967138 0.707106759897476 0.707106785967138 157.817662657476 144)" fill="#000000" fill-rule="evenodd" stroke="#000000" stroke-width="4.8" stroke-linecap="square" stroke-linejoin="bevel" d="M12 0C13.3255 8.11598e-17 14.4 1.07452 14.4 2.4L14.4 12C14.4 13.3255 13.3255 14.4 12 14.4L2.4 14.4C1.07452 14.4 2.8177e-16 13.3255 4.44089e-16 12Z"/>
</svg>
