<?xml version="1.0" standalone="no"?>
<!DOCTYPE svg PUBLIC "-//W3C//DTD SVG 20010904//EN" "http://www.w3.org/TR/2001/REC-SVG-20010904/DTD/svg10.dtd">
<!-- Created using Krita: http://krita.org -->
<svg xmlns="http://www.w3.org/2000/svg" 
    xmlns:xlink="http://www.w3.org/1999/xlink"
    xmlns:krita="http://krita.org/namespaces/svg/krita"
    xmlns:sodipodi="http://sodipodi.sourceforge.net/DTD/sodipodi-0.dtd"
    width="240pt"
    height="240pt"
    viewBox="0 0 240 240">
<defs/>
<rect id="shape0" transform="translate(36, 72)" fill="#000000" fill-rule="evenodd" stroke="#000000" stroke-width="4.8" stroke-linecap="square" stroke-linejoin="bevel" width="48" height="96" rx="7.2" ry="7.2"/><rect id="shape1" transform="translate(110.4, 47.8799999914985)" fill="#000000" fill-rule="evenodd" stroke="#000000" stroke-width="4.8" stroke-linecap="square" stroke-linejoin="bevel" width="19.2" height="144" rx="7.2" ry="7.2"/><path id="shape2" transform="translate(38.1600027034672, 48.600003443095)" fill="#000000" fill-rule="evenodd" stroke="#000000" stroke-width="4.8" stroke-linecap="square" stroke-linejoin="bevel" d="M78.24 71.4L78.36 0L0.12 43.2L0 71.4L78.24 71.4Z"/><rect id="shape3" transform="matrix(1 0 0 -1 36 168)" fill="#000000" fill-rule="evenodd" stroke="#000000" stroke-width="4.8" stroke-linecap="square" stroke-linejoin="bevel" width="48" height="96" rx="7.2" ry="7.2"/><rect id="shape4" transform="matrix(1 0 0 -1 110.4 192.120000008501)" fill="#000000" fill-rule="evenodd" stroke="#000000" stroke-width="4.8" stroke-linecap="square" stroke-linejoin="bevel" width="19.2" height="144" rx="7.2" ry="7.2"/><path id="shape5" transform="matrix(1 0 0 -1 38.1600027034672 191.399996556905)" fill="#000000" fill-rule="evenodd" stroke="#000000" stroke-width="4.8" stroke-linecap="square" stroke-linejoin="bevel" d="M78.24 71.4L78.36 0L0.12 43.2L0 71.4L78.24 71.4Z"/><path id="shape6" transform="matrix(6.12303176911189e-17 -1 1 6.12303176911189e-17 144 156)" sodipodi:type="arc" sodipodi:rx="36" sodipodi:ry="36" sodipodi:cx="35.9999999999999" sodipodi:cy="-4.08006961549745e-14" sodipodi:start="6.28318530717959" sodipodi:end="3.14159259877441" sodipodi:open="true" d="M0 1.97335e-6C1.08985e-6 19.8823 16.1178 36 36 36C55.8823 36 72 19.8823 72 -3.19835e-14" fill="none" stroke="#000000" stroke-width="9.6" stroke-linecap="square" stroke-linejoin="bevel"/><path id="shape7" transform="matrix(6.12303176911189e-17 -1 1 6.12303176911189e-17 144 174)" sodipodi:type="arc" sodipodi:rx="54" sodipodi:ry="54" sodipodi:cx="53.9999999999999" sodipodi:cy="8.26838597589585e-14" sodipodi:start="6.28318530717959" sodipodi:end="3.14159260800391" sodipodi:open="true" d="M0 2.46164e-6C1.35952e-6 29.8234 24.1766 54 54 54C83.8234 54 108 29.8234 108 -1.36609e-17" fill="none" stroke="#000000" stroke-width="9.6" stroke-linecap="square" stroke-linejoin="bevel"/>
</svg>
